name C:\Users\u0101727\Documents\MyRepositories\upper-imu-dc\Results\main_tracking\Case_14\ABD01_orientations_groundFrame.mot
datacolumns 13
datarows 32
range 4.56000000 4.87000000
endheader 
time	radius_imu_[0][0]	radius_imu_[0][1]	radius_imu_[0][2]	radius_imu_[1][0]	radius_imu_[1][1]	radius_imu_[1][2]	radius_imu_[2][0]	radius_imu_[2][1]	radius_imu_[2][2]	radius_imu_x	radius_imu_y	radius_imu_z	
          4.56000000	          0.97951866	          0.14938564	          0.13500791	         -0.14635505	          0.06772183	          0.98691132	          0.13828740	         -0.98645714	          0.08819814	         -1.48166526	          0.13542144	         -0.15134306	
          4.57000000	          0.97936673	          0.15081355	          0.13452167	         -0.14481616	          0.05944384	          0.98767136	          0.14095774	         -0.98677338	          0.08005755	         -1.48991627	          0.13493073	         -0.15279071	
          4.58000000	          0.97922088	          0.15219327	          0.13402862	         -0.14323963	          0.05121409	          0.98836204	          0.14355790	         -0.98702296	          0.07195001	         -1.49812729	          0.13443317	         -0.15418918	
          4.59000000	          0.97908351	          0.15351963	          0.13351855	         -0.14161494	          0.04302260	          0.98898648	          0.14608452	         -0.98720858	          0.06386339	         -1.50631127	          0.13391848	         -0.15553292	
          4.60000000	          0.97895313	          0.15479152	          0.13300509	         -0.13995568	          0.03485761	          0.98954401	          0.14853678	         -0.98733203	          0.05578792	         -1.51447854	          0.13340039	         -0.15682111	
          4.61000000	          0.97882494	          0.15601142	          0.13252233	         -0.13829596	          0.02670539	          0.99003083	          0.15091705	         -0.98739418	          0.04771565	         -1.52263747	          0.13291332	         -0.15805695	
          4.62000000	          0.97869242	          0.15718442	          0.13211438	         -0.13667984	          0.01855111	          0.99044156	          0.15323111	         -0.98739501	          0.03963977	         -1.53079535	          0.13250176	         -0.15924662	
          4.63000000	          0.97854924	          0.15831738	          0.13182186	         -0.13514781	          0.01038111	          0.99077106	          0.15548782	         -0.98733370	          0.03155467	         -1.53895849	          0.13220665	         -0.16039800	
          4.64000000	          0.97839110	          0.15941805	          0.13166906	         -0.13372425	          0.00218575	          0.99101617	          0.15769807	         -0.98720875	          0.02345658	         -1.54713153	          0.13205251	         -0.16151956	
          4.65000000	          0.97821701	          0.16049430	          0.13165506	         -0.13240861	         -0.00603812	          0.99117683	          0.15987318	         -0.98701830	          0.01534424	         -1.55531673	          0.13203839	         -0.16261938	
          4.66000000	          0.97802978	          0.16155317	          0.13175096	         -0.13117288	         -0.01428650	          0.99125656	          0.16202290	         -0.98676059	          0.00721877	         -1.56351401	          0.13213514	         -0.16370404	
          4.67000000	          0.97783556	          0.16259989	          0.13190484	         -0.12996635	         -0.02254943	          0.99126196	          0.16415347	         -0.98643439	         -0.00091712	         -1.57172153	          0.13229037	         -0.16477781	
          4.68000000	          0.97764237	          0.16363713	          0.13205412	         -0.12872803	         -0.03081335	          0.99120111	          0.16626633	         -0.98603926	         -0.00905975	         -1.57993625	          0.13244096	         -0.16584200	
          4.69000000	          0.97745782	          0.16466464	          0.13214297	         -0.12740407	         -0.03906319	          0.99108136	          0.16835798	         -0.98557578	         -0.01720367	         -1.58815307	          0.13253060	         -0.16689512	
          4.70000000	          0.97728668	          0.16567983	          0.13213985	         -0.12596553	         -0.04728329	          0.99090715	          0.17042134	         -0.98504542	         -0.02533938	         -1.59636266	          0.13252745	         -0.16793374	
          4.71000000	          0.97712906	          0.16667897	          0.13204891	         -0.12442010	         -0.05545714	          0.99067863	          0.17244835	         -0.98445042	         -0.03345057	         -1.60454882	          0.13243571	         -0.16895410	
          4.72000000	          0.97698015	          0.16765876	          0.13191028	         -0.12281250	         -0.06356671	          0.99039203	          0.17443300	         -0.98379358	         -0.04151282	         -1.61268735	          0.13229585	         -0.16995372	
          4.73000000	          0.97683166	          0.16861770	          0.13178765	         -0.12121179	         -0.07159234	          0.99004153	          0.17637351	         -0.98307813	         -0.04949521	         -1.62074781	          0.13217214	         -0.17093249	
          4.74000000	          0.97667475	          0.16955660	          0.13174597	         -0.11968843	         -0.07951374	          0.98962227	          0.17827260	         -0.98230755	         -0.05736510	         -1.62869819	          0.13213009	         -0.17189277	
          4.75000000	          0.97650350	          0.17047827	          0.13182593	         -0.11828798	         -0.08731191	          0.98913325	          0.18013570	         -0.98148550	         -0.06509486	         -1.63651157	          0.13221076	         -0.17283841	
          4.76000000	          0.97631774	          0.17138627	          0.13202431	         -0.11701072	         -0.09497172	          0.98857921	          0.18196749	         -0.98061568	         -0.07266854	         -1.64417242	          0.13241089	         -0.17377301	
          4.77000000	          0.97612410	          0.17228339	          0.13228824	         -0.11580553	         -0.10248422	          0.98797068	          0.18376839	         -0.97970170	         -0.08008595	         -1.65168054	          0.13267715	         -0.17469822	
          4.78000000	          0.97593489	          0.17317006	          0.13252628	         -0.11458101	         -0.10984858	          0.98732187	          0.18553241	         -0.97874686	         -0.08736306	         -1.65905136	          0.13291731	         -0.17561234	
          4.79000000	          0.97576519	          0.17404316	          0.13263213	         -0.11322945	         -0.11707315	          0.98664734	          0.18724688	         -0.97775399	         -0.09452909	         -1.66631317	          0.13302410	         -0.17650960	
          4.80000000	          0.97562922	          0.17489516	          0.13251157	         -0.11165429	         -0.12417548	          0.98595830	          0.18889403	         -0.97672521	         -0.10162143	         -1.67350236	          0.13290246	         -0.17737991	
          4.81000000	          0.97553746	          0.17571372	          0.13210359	         -0.10979191	         -0.13118080	          0.98526003	          0.19045316	         -0.97566197	         -0.10867984	         -1.68065793	          0.13249087	         -0.17820909	
          4.82000000	          0.97549500	          0.17648193	          0.13139115	         -0.10762312	         -0.13811871	          0.98455091	          0.19190302	         -0.97456521	         -0.11574058	         -1.68781597	          0.13177216	         -0.17897933	
          4.83000000	          0.97550134	          0.17717930	          0.13040180	         -0.10517465	         -0.14501864	          0.98382310	          0.19322378	         -0.97343572	         -0.12283110	         -1.69500442	          0.13077423	         -0.17967033	
          4.84000000	          0.97555105	          0.17778368	          0.12920186	         -0.10251391	         -0.15190488	          0.98306450	          0.19439921	         -0.97227459	         -0.12996567	         -1.70223870	          0.12956405	         -0.18026105	
          4.85000000	          0.97563480	          0.17827382	          0.12788735	         -0.09974035	         -0.15879281	          0.98226102	          0.19541901	         -0.97108356	         -0.13714270	         -1.70951897	          0.12823854	         -0.18073210	
          4.86000000	          0.97574049	          0.17863235	          0.12657402	         -0.09697510	         -0.16568703	          0.98139882	          0.19628125	         -0.96986509	         -0.14434466	         -1.71682983	          0.12691445	         -0.18106850	
          4.87000000	          0.97585420	          0.17884842	          0.12538666	         -0.09434942	         -0.17258232	          0.98046598	          0.19699432	         -0.96862200	         -0.15154094	         -1.72414304	          0.12571756	         -0.18126209	
